<?xml version="1.0" encoding="UTF-8"?> <!-- Generator: Adobe Illustrator 22.1.0, SVG Export Plug-In . SVG Version: 6.00 Build 0) --> <svg xmlns="http://www.w3.org/2000/svg" xmlns:xlink="http://www.w3.org/1999/xlink" id="Layer_1" x="0px" y="0px" viewBox="0 0 376 199" style="enable-background:new 0 0 376 199;" xml:space="preserve"> <style type="text/css"> .st0{fill:#FFFFFF;} </style> <g> <path class="st0" d="M99.3,43c-7.6-4.5-16.1-8.8-25.8-12c-8.9-3-20.9-5.3-33.4-5c-12.8,0.7-23.2,2.6-32.9,6.8 c9.7-2.3,19.4-3.3,30.3-2.9c10.2,0.3,19.9,2.7,28.1,5.6c16.8,5.6,28.7,16.1,37.6,28.7c9.4,12.8,16.1,28.4,20.1,46.4 c4.2,17.5,5.2,41.5,1.1,60.4c4.5,0,8.8-0.3,13.4,0c-1.6-6.2-2.6-12.8-3.6-19.8c-1.1-7-1.6-14.1-1.6-21.6 c-0.7-14.9,2.9-28.1,8.5-38.2c11-20.1,29.9-32.9,58.9-34.3c-14.9-1.6-28.7,1.1-39.9,5.2c-11.2,4.5-19.8,11.2-26.5,20.1 C127.4,64.9,115.2,52.6,99.3,43"></path> <path class="st0" d="M180.1,79.5c-13,0.7-23.2,5.6-29.4,13.4c-2.9,3.6-5.6,8.5-6.8,14.6c-1.1,6.2-0.3,13,1.6,18.2 c5.6,14.6,20.9,22.7,42.2,20.1c5.6-0.7,10.9-1.9,15.7-2.6c1.1,0,1.6,0,1.9-0.7c0.3-0.7-0.3-0.7-0.7-1.6c-1.9-1.9-1.6-5.2-1.6-9.7 c0-2.9-0.3-6.2,1.1-7.8c0.7-0.7,4.9-1.1,5.2-1.9c0.3-0.3,0.3-1.6,0-1.9c-0.7-1.1-4.9-0.3-6.8-0.3c-7.6,0.3-14.6-0.3-21.3,0 c-0.3,0.3-0.3,1.9,0,2.6c3.3,1.6,8.5,0.3,9.7,3.3c0.7,1.6,0.3,4.9,0.3,7.8s0,5.6-0.7,7.6c-1.1,2.6-9.4,2.6-13,2.3 c-13-2.3-19.8-11.4-21.3-25c-2.3-20.1,7.1-35.1,26.8-33.6c8.2,0.3,13.4,4.9,15.7,11.4c0.3,0.7,0.3,2.3,1.1,2.6 c0.7,0.2,1.9,0.3,2.6-0.3c0-5.2-1.1-10.4-1.1-15.7C194.6,81,189.1,79.1,180.1,79.5"></path> <path class="st0" d="M222.4,104.5c-1.9,1.1-3.3,1.9-6,2.6c-1.1,0.3-5.6,1.6-6,2.6c-0.7,1.6,0.7,2.3,1.6,2.9 c1.1,0.7,1.9,1.6,1.9,3.3c0.3,3.6,0,8.2,0,12.8c0,3.3,0.7,10.1-0.7,12c-1.1,1.6-3.3,1.1-4.9,1.9c-0.3,0.7-0.3,1.9,0,2.6 c7.6,0,16.1,0,23.5,0c0.3-0.7,0.7-1.9,0-2.6c-2.3-0.7-4.9,0-6.2-1.1c-2.3-1.9-1.1-10.9-1.1-14.1c0-4.2-1.1-12.8,1.9-13.4 c2.6-0.7,4.9,1.9,7.1,2.6c4.2,1.1,6.8-2.6,6.2-6c-0.3-2.9-2.9-4.5-6.2-4.2c-3.6,0.3-5.6,3.6-8.8,4.9c-1.1-1.1,0-4.2-0.3-5.6 C223.5,104.2,222.7,104.2,222.4,104.5"></path> <path class="st0" d="M322,104.5c-3.6,1.9-8.5,3.6-12.4,5.2c-0.7,1.9,0.7,2.3,1.6,2.9c0.7,0.3,1.1,1.1,1.6,1.6 c1.1,2.6,0.3,8.8,0.3,13.8v7.1c0,1.9,0,4.9-1.1,6s-3.3,0.7-4.9,1.6c-0.3,0.7-0.3,1.9,0,2.6c6.8,0,14.6,0,21.3,0 c0.3-0.3,0.3-1.9,0-2.6c-1.6-0.3-3.6-0.3-4.5-1.9c-1.6-2.3-0.7-8.5-0.7-12.4c0-4.5-0.7-10.1,0.3-12.8c1.6-4.2,7.1-5.6,11.2-3.6 c2.3,1.1,3.3,3.6,3.6,6.2c0.3,5.6,0,11.4,0,17.5c0,4.5-1.1,6.2-5.2,6.2c-0.3,0.7-0.3,1.9,0,2.6c6.8-0.3,14.9,0,21.6,0 c0.3-0.7,0.3-1.9,0-2.6c-1.6-0.3-3.6-0.3-4.9-1.1c-1.6-1.6-0.7-6.8-0.7-10.4c0-4.2,0-7.8,0-12c0-7.6-3.3-12.8-10.4-13.4 c-7.1-0.3-10.1,2.9-14.9,4.9c-1.1-1.1,0.3-4.5-0.3-5.6C322.7,104.2,322.4,104.2,322,104.5"></path> <path class="st0" d="M98,110.4c1.9-1.1,6-1.9,8.5-0.3c1.9,1.1,3.6,4.5,2.3,6.8c-1.1,1.6-4.5,1.1-7.1,1.1c-2.9,0-6,0-8.2-0.3 C94.4,114.3,95.8,112,98,110.4 M117,134c-0.3,0-1.1,1.1-1.6,1.6c-2.3,2.3-5.2,3.6-9.7,3.3c-8.2-0.7-13.4-7.6-12.8-16.4 c6.2-0.3,13,0,19.4-0.3c1.9,0,4.9,0,5.6-1.1c1.6-1.9,0-6.2-0.3-7.8c-1.9-4.5-7.8-8.2-14.1-7.8c-11.2,0.7-18.7,8.5-19.8,19.4 c-0.7,6,1.1,11.2,4.2,14.9c2.6,3.3,7.1,6.2,12.8,6.8c7.1,0.3,12.4-2.6,15.3-6c0.3-0.3,1.1-1.1,1.6-2.3c0.3-0.7,1.1-1.9,1.1-2.6 C118.6,134.7,118.3,133.6,117,134"></path> <path class="st0" d="M254.5,109.4c2.6-0.3,5.2,0.7,6.2,2.6c0.7,1.1,1.6,3.6,0.3,5.2c-1.1,1.6-4.9,1.1-7.1,1.1c-2.9,0-6,0.3-7.8-0.3 C246.6,113.5,250,109.7,254.5,109.4 M269.8,134c-0.7,0-1.1,1.1-1.9,1.6c-1.9,2.3-4.9,3.3-8.5,3.3c-8.8-0.3-14.1-7.6-13.8-16.4 c6.8-0.3,13,0,19.8-0.3c1.9,0,4.9,0,5.6-1.1c1.1-1.6,0.3-5.6-0.3-7.1c-0.7-2.3-2.3-3.6-3.6-4.9c-2.6-2.3-7.1-3.6-12-3.3 c-6,0.3-10.4,3.3-13.4,6.8c-2.9,3.6-5.2,8.2-5.2,14.6c0,10.1,6,16.8,14.1,19c7.6,1.9,14.6-1.1,18.2-5.2c0.7-0.7,2.9-3.6,2.6-5.2 C271.1,134.7,270.8,134,269.8,134"></path> <path class="st0" d="M290.7,109.4c2.3-0.3,4.5,0.3,5.6,1.6c1.1,1.1,2.6,4.2,1.6,6c-1.1,1.6-4.5,1.1-7.1,1.1c-2.9,0-6,0.3-8.2-0.3 C282.8,113.5,286.1,109.7,290.7,109.4 M307.4,135.2c0-0.3-0.7-1.1-1.6-1.1s-1.1,0.7-1.6,1.6c-0.3,0.7-1.1,1.1-1.6,1.6 c-4.9,3.3-12,1.6-15.7-1.6c-3.3-2.6-6-7.1-5.2-13c6.8-0.3,13,0,19.8-0.3c1.9,0,4.9,0,5.6-1.1c0.7-0.7,0.7-2.6,0.3-4.2 c0-1.6-0.7-2.9-1.6-4.5c-2.3-4.2-7.6-7.6-14.9-7.1c-7.1,0.3-12,4.5-14.9,8.5c-2.9,4.5-4.9,11.4-2.9,18.7c1.6,6,5.6,10.1,11.2,12.4 c9.4,3.3,18.2-1.1,22.1-7.1C306.6,137.7,307.4,136.2,307.4,135.2"></path> <path class="st0" d="M69.2,129.9c-0.3,6-4.9,10.9-11.2,11.2c-2.6,0.3-6.8,0-8.5-1.9c-3.3-2.9-2.3-12.4-2.3-19c0-1.1-0.3-6,0.3-6.8 c0.3-0.7,1.6-0.7,2.3-0.7c5.6-0.7,10.4,0.7,13.4,2.9C67,118.2,69.5,122.8,69.2,129.9 M48,85.5c0.3-0.7,2.3-0.7,2.9-0.7 c4.2-0.3,8.2,0.7,10.9,3.3c4.2,4.2,4.2,15.3-1.1,18.7c-1.6,1.1-3.6,1.6-6,1.9c-1.9,0.3-6,0.7-6.8-0.3c-0.7-0.7-0.3-3.6-0.3-5.6 V90.7C47.3,89.5,47.3,86.2,48,85.5 M68.8,110.4c-1.1-0.3-2.6,0-3.3-1.1c0.3-0.7,1.1-0.7,1.6-0.7c4.9-1.9,9.4-5.2,10.1-10.9 c1.1-11.2-7.1-15.3-16.4-16.4c-10.1-1-22.1-0.3-31.8,0.4c-0.3,0.7-0.3,1.9,0,2.6c1.6,0.3,4.5,0,6,1.6c1.9,1.9,1.1,8.8,1.1,13v28.6 c0,4.5,0.7,10.9-1.1,13c-1.1,1.6-4.9,1.6-6.8,2.3c-0.3,0.7-0.3,1.9,0.3,2.6c11.2-0.7,24.2,1.1,34.6-0.3c10.4-1.6,18.2-6.8,18.2-18 C81.6,117.5,76.1,112.7,68.8,110.4"></path> <path class="st0" d="M359.4,109.4c0,0-0.3,0-0.7,0h-0.3v1.6h0.3c0.3,0,0.3,0,0.7,0c0,0,0.3-0.3,0.3-0.7 C359.7,109.4,359.4,109.4,359.4,109.4 M356.7,113.5v-5.2c0.3,0,0.7,0,1.6,0s1.1,0,1.1,0c0.3,0,0.7,0,1.1,0.3 c0.3,0.3,0.7,0.7,0.7,1.1s0,0.7-0.3,0.7c-0.3,0.3-0.3,0.3-0.7,0.3c0.3,0,0.3,0,0.7,0.3c0.3,0.3,0.3,0.7,0.3,1.1v0.3l0,0l0,0l0,0 h-1.6c0,0,0-0.3,0-0.7c0-0.3,0-0.3,0-0.7l-0.3-0.3H359h-0.1h-0.3v1.9H357v1.1h-0.1L356.7,113.5L356.7,113.5z M356.1,108.4 c-0.7,0.7-1.1,1.6-1.1,2.6c0,1.1,0.3,1.9,1.1,2.6c0.7,0.7,1.6,1.1,2.6,1.1c1.1,0,1.9-0.3,2.6-1.1c0.7-0.7,1.1-1.6,1.1-2.6 c0-1.1-0.3-1.9-1.1-2.6c-0.7-0.7-1.6-1.1-2.6-1.1C357.8,107,356.7,107.5,356.1,108.4 M361.9,113.9c-0.7,0.7-1.9,1.1-3.3,1.1 c-1.1,0-2.3-0.3-3.3-1.6c-0.7-0.7-1.6-1.9-1.6-3.3s0.3-2.6,1.6-3.3c0.7-0.7,1.9-1.1,2.9-1.1s2.3,0.3,3.3,1.6 c0.7,0.7,1.6,1.9,1.6,3.3C363.3,112,363,113,361.9,113.9"></path> <path class="st0" d="M153.7,159.4v4.9h1.9c1.6,0,2.3-0.7,2.3-2.3c0-0.7,0-1.1-0.3-1.6c-0.3-0.3-1.1-0.7-1.9-0.7h-1.9L153.7,159.4 L153.7,159.4z M155.8,165.5h-2.3v4.9h-2.3v-13h3.3c1.9,0,2.6,0.3,3.3,0.7c1.1,0.7,1.9,1.9,1.9,3.3 C160.4,164.3,158.3,165.5,155.8,165.5"></path> <path class="st0" d="M178.7,160.1L178.7,160.1c0,0-1.6,4.9-1.6,5.6h3.3C180.1,165.3,178.7,160.4,178.7,160.1 M181.6,170.8l-1.1-3.6 h-4.2l-1.1,3.3h-2.3l4.5-13h2.6l4.2,13h-2.6L181.6,170.8L181.6,170.8L181.6,170.8z"></path> <path class="st0" d="M203.6,170.8c-1.9,0-2.9-0.7-4.2-1.9c-1.2-1.1-1.6-2.6-1.6-4.9c0-1.6,0.3-2.9,0.7-4.2c1.1-1.9,2.6-2.9,4.9-2.9 c1.1,0,2.6,0.3,3.3,1.1l-1.1,1.6c-0.7-0.3-1.6-0.7-2.3-0.7c-1.1,0-1.9,0.7-2.6,1.6c-0.3,0.7-0.7,1.9-0.7,3.3c0,1.6,0,2.6,0.3,3.3 c0.7,1.1,1.6,1.9,2.9,1.9c0.7,0,1.6-0.3,2.3-0.7l1.1,1.6C206.2,170.6,205.2,170.8,203.6,170.8"></path> <path class="st0" d="M231.6,157.4l-4.5,6l4.9,7.1h-3.1l-4.5-7.1l4.2-6H231.6z M222.4,157.4h2.3v13h-2.3V157.4z"></path> <path class="st0" d="M251.4,160.1L251.4,160.1c0,0-1.6,4.9-1.6,5.6h3.3C252.9,165.3,251.4,160.4,251.4,160.1 M254.5,170.8l-1.1-3.3 h-4.2l-1.1,3.3h-2.5l4.5-13h2.6l4.2,13H254.5z"></path> <path class="st0" d="M276.8,170.8c-1.9,0-3.3-0.7-4.5-1.9s-1.6-2.6-1.6-4.9c0-2.6,0.7-4.5,2.6-6c1.1-0.7,1.9-1.1,3.3-1.1 c1.6,0,2.9,0.3,3.6,1.6l-1.1,1.6c-0.7-0.7-1.9-1.1-2.6-1.1c-2.6,0-3.3,2.3-3.3,5.2c0,1.9,0.3,2.9,1.1,3.6c0.3,0.7,1.6,1.1,2.6,1.1 c0.7,0,1.1,0,1.9-0.3v-3.3h-2.3l-0.3-1.9h4.9v6.2C279.6,170.6,278.4,170.8,276.8,170.8"></path> <rect x="297.3" y="157.4" class="st0" width="2.3" height="13"></rect> <path class="st0" d="M323.1,170.8l-2.9-6.2c-0.7-1.6-1.6-2.9-1.6-3.6l0,0c0,1.1,0,2.6,0,3.6v6.2h-2.3v-13h2.6l3.3,6.2 c0.7,1.1,1.1,2.6,1.6,3.3l0,0c0-0.7-0.3-2.6-0.3-3.6v-6h2.3v13C325.8,170.8,323.1,170.8,323.1,170.8z"></path> <path class="st0" d="M346.9,170.8c-1.9,0-3.3-0.7-4.5-1.9c-0.7-1.1-1.6-2.6-1.6-4.9c0-2.6,0.7-4.5,2.6-6c1.1-0.7,1.9-1.1,3.3-1.1 s2.9,0.3,3.6,1.6l-1.1,1.6c-0.7-0.7-1.9-1.1-2.6-1.1c-2.6,0-3.3,2.3-3.3,5.2c0,1.9,0.3,2.9,1.1,3.6c0.3,0.7,1.6,1.1,2.6,1.1 c0.7,0,1.1,0,1.9-0.3v-3.3h-2.3l-0.3-1.9h4.9v6.2C350,170.6,348.5,170.8,346.9,170.8"></path> </g> </svg> 