<?xml version="1.0" encoding="utf-8"?>
<!-- Generator: Adobe Illustrator 16.0.0, SVG Export Plug-In . SVG Version: 6.00 Build 0)  -->
<!DOCTYPE svg PUBLIC "-//W3C//DTD SVG 1.1//EN" "http://www.w3.org/Graphics/SVG/1.1/DTD/svg11.dtd">
<svg version="1.1" id="Layer_1" xmlns="http://www.w3.org/2000/svg" xmlns:xlink="http://www.w3.org/1999/xlink" x="0px" y="0px"
	 width="102px" height="26px" viewBox="0 0 102 26" enable-background="new 0 0 102 26" xml:space="preserve">
<path fill="#81B910" d="M26.14,21.302c-0.285,0-0.373-0.087-0.373-0.373V9.42c0-1.749-0.815-2.563-2.563-2.563h-3.624v3.59h1.779
	c0.285,0,0.372,0.087,0.372,0.374V22.33c0,1.749,0.815,2.563,2.565,2.563h3.622v-3.591H26.14z"/>
<path fill="#81B910" d="M21.141,2.825c0,1.266,1.026,2.292,2.292,2.292s2.293-1.026,2.293-2.292S24.7,0.532,23.434,0.532
	S21.141,1.559,21.141,2.825"/>
<path fill="#A17156" d="M74.052,21.7c-1.965,0-2.846-1.189-2.846-2.369c0-2.584,3.515-2.915,6.576-2.915h0.473v0.202
	C78.255,19.022,76.529,21.7,74.052,21.7 M82.26,20.754v-7.291c0-4.771-2.429-7.089-7.428-7.089c-1.055,0-6.31,0.173-6.31,3.597
	v1.301h3.837v-0.589c0-0.689,1.496-0.946,2.438-0.946c2.463,0,3.376,0.926,3.42,3.522h-0.366c-6.913,0-10.72,2.217-10.72,6.241
	c0,3.674,3.124,5.598,6.208,5.598c2.688,0,4.277-1.396,5.096-2.459c0.08,0.996,0.61,2.052,2.499,2.052h3.462v-3.564h-1.766
	C82.347,21.125,82.26,21.038,82.26,20.754"/>
<path fill="#A17156" d="M99.136,20.642L96.594,16c-0.309-0.581-0.625-0.939-0.877-1.157c0.249-0.211,0.586-0.553,0.983-1.091
	l5.081-6.971h-4.694l-4.073,5.708c-0.397,0.521-1.109,0.599-1.499,0.599h-1.759V2.342C89.756,0.678,89.017,0,87.21,0H83.58v3.564
	h1.766c0.284,0,0.37,0.087,0.37,0.371V24.69h4.041v-8.071h0.912c0.737,0,1.77,0.163,1.975,0.516l3.123,5.771
	c0.809,1.434,1.433,1.784,3.175,1.784h2.749v-3.564h-1.426C99.453,21.125,99.312,20.996,99.136,20.642"/>
<path fill="#81B910" d="M7.432,21.29h4.255c2.119,0,3.31-1.422,3.31-3.408c0-1.951-1.225-3.374-3.31-3.374H6.703v6.054
	C6.703,21.024,6.968,21.29,7.432,21.29 M11.291,11.064c1.819,0,2.845-1.323,2.845-3.011s-0.993-2.912-2.912-2.912H6.703v5.922
	H11.291z M2.368,5.142h-2.15V1.469h11.039c4.236,0,7.279,2.184,7.279,6.055c0,2.614-1.422,4.301-2.845,5.03v0.066
	c2.548,0.761,3.771,3.143,3.771,5.526c0,4.698-3.738,6.816-8.106,6.816H4.619c-1.555,0-2.25-0.662-2.25-2.249V5.142z"/>
<path fill="#A17156" d="M59.037,13.126c2.447,0,3.838-1.588,3.838-4.036c0-2.416-1.391-3.971-3.771-3.971h-3.189v8.007H59.037z
	 M51.579,5.12h-2.149V1.448h10.4c4.401,0,7.479,3.077,7.479,7.643c0,4.566-3.078,7.743-7.479,7.743h-3.916v8.107h-4.335V5.12z"/>
<path fill="#81B910" d="M38.526,17.646l0.047,0.05l0.056-0.039c1.777-1.279,2.063-3.16,2.075-4.168
	c0.023-1.834-1.115-2.984-1.974-3.689l-0.05-0.041L38.63,9.8c-0.858,0.705-1.998,1.855-1.975,3.689
	c0.01,0.787,0.18,1.949,0.932,3.017C37.811,16.873,38.319,17.425,38.526,17.646"/>
<path fill="#81B910" d="M44.439,15.66c-2.165,0-3.962,0.836-5.342,2.484l-0.04,0.048l0.037,0.05
	c0.804,1.098,1.259,2.249,1.458,2.837l0.025,0.073l0.073-0.022c2.239-0.727,3.706-2.738,3.925-5.383l0.007-0.085L44.439,15.66z"/>
<path fill="#81B910" d="M38.613,18.569c-1.416-1.93-3.325-2.909-5.672-2.909l-0.145,0.002l0.007,0.085
	c0.295,3.458,2.643,5.692,5.983,5.692c0.373,0,0.759-0.027,1.148-0.08l0.094-0.014l-0.031-0.089
	C39.769,20.576,39.34,19.557,38.613,18.569"/>
<path fill="#81B910" d="M47.3,20.548c-0.022-0.034-0.043-0.066-0.066-0.097c0.027-0.02,0.053-0.035,0.082-0.052
	c0.021,0.027,0.041,0.053,0.063,0.082C47.354,20.504,47.33,20.525,47.3,20.548 M47.188,21.17c-0.029-0.039-0.058-0.082-0.089-0.127
	c0.041-0.026,0.083-0.053,0.128-0.081c0.027,0.04,0.053,0.076,0.08,0.115C47.267,21.109,47.227,21.14,47.188,21.17 M46.806,19.833
	c-0.018-0.028-0.036-0.054-0.054-0.082c0.022-0.013,0.042-0.026,0.068-0.041c0.017,0.021,0.033,0.042,0.053,0.068
	C46.848,19.797,46.828,19.815,46.806,19.833 M46.695,20.46c-0.027-0.04-0.056-0.082-0.085-0.124c0.04-0.025,0.08-0.051,0.119-0.075
	c0.027,0.039,0.054,0.075,0.08,0.114C46.771,20.403,46.733,20.431,46.695,20.46 M46.584,21.09c-0.035-0.052-0.072-0.104-0.11-0.159
	c0.048-0.029,0.102-0.063,0.155-0.096c0.033,0.047,0.066,0.096,0.099,0.143C46.68,21.014,46.629,21.056,46.584,21.09 M46.473,21.711
	c-0.04-0.062-0.085-0.13-0.125-0.19c0.056-0.034,0.12-0.076,0.181-0.115c0.035,0.054,0.076,0.113,0.114,0.168
	C46.588,21.62,46.527,21.667,46.473,21.711 M46.363,22.372c-0.018-0.128-0.078-0.216-0.198-0.27c0.12-0.017,0.206-0.068,0.267-0.165
	c0.022,0.109,0.078,0.188,0.178,0.246C46.493,22.208,46.416,22.268,46.363,22.372 M46.091,20.378
	c-0.032-0.048-0.064-0.098-0.098-0.147c0.046-0.029,0.095-0.061,0.145-0.095c0.03,0.043,0.063,0.088,0.095,0.133
	C46.186,20.303,46.137,20.342,46.091,20.378 M45.988,20.998c-0.042-0.059-0.089-0.123-0.131-0.183
	c0.054-0.032,0.117-0.074,0.176-0.109c0.037,0.053,0.082,0.114,0.12,0.169C46.1,20.914,46.041,20.959,45.988,20.998 M45.87,21.652
	c-0.024-0.111-0.081-0.191-0.193-0.247c0.119-0.011,0.198-0.061,0.251-0.131c0.047,0.067,0.093,0.136,0.142,0.208
	C45.99,21.505,45.919,21.558,45.87,21.652 M45.495,20.287c-0.037-0.055-0.078-0.113-0.116-0.168
	c0.053-0.033,0.109-0.069,0.163-0.102c0.033,0.047,0.071,0.102,0.106,0.152C45.6,20.207,45.546,20.249,45.495,20.287 M45.378,20.969
	c-0.015-0.126-0.071-0.209-0.182-0.27c0.107-0.016,0.186-0.058,0.237-0.128c0.051,0.07,0.102,0.139,0.152,0.211
	C45.5,20.808,45.429,20.866,45.378,20.969 M45.006,19.596c-0.04-0.057-0.082-0.122-0.124-0.183c0.051-0.029,0.109-0.065,0.167-0.1
	c0.036,0.05,0.077,0.105,0.115,0.156C45.111,19.512,45.055,19.558,45.006,19.596 M44.885,20.251c-0.02-0.112-0.075-0.19-0.176-0.248
	c0.108-0.018,0.188-0.064,0.24-0.136c0.045,0.067,0.09,0.135,0.137,0.206C45.002,20.1,44.935,20.159,44.885,20.251 M45.151,18.744
	c0.028,0.038,0.058,0.08,0.088,0.12c-0.042,0.031-0.084,0.063-0.126,0.093c-0.031-0.044-0.062-0.088-0.094-0.133
	C45.062,18.797,45.106,18.77,45.151,18.744 M45.25,18.174c0.019,0.027,0.04,0.057,0.062,0.088c-0.028,0.022-0.055,0.044-0.084,0.065
	c-0.021-0.029-0.042-0.059-0.066-0.093C45.192,18.214,45.22,18.194,45.25,18.174 M45.348,17.605c0.016,0.021,0.03,0.039,0.046,0.061
	c-0.02,0.018-0.039,0.031-0.061,0.048c-0.016-0.022-0.029-0.042-0.048-0.066C45.307,17.633,45.326,17.62,45.348,17.605
	 M45.64,19.437c0.031,0.043,0.062,0.089,0.095,0.135c-0.042,0.032-0.087,0.065-0.128,0.097c-0.036-0.048-0.072-0.097-0.106-0.144
	C45.544,19.497,45.591,19.467,45.64,19.437 M45.814,18.967c-0.034,0.026-0.069,0.054-0.104,0.082
	c-0.025-0.038-0.052-0.074-0.079-0.116c0.036-0.022,0.074-0.047,0.111-0.071C45.767,18.898,45.791,18.932,45.814,18.967
	 M45.771,18.346c0.024-0.015,0.045-0.028,0.07-0.045c0.016,0.02,0.032,0.042,0.048,0.066c-0.023,0.019-0.045,0.033-0.069,0.054
	C45.803,18.395,45.788,18.372,45.771,18.346 M46.304,19.668c-0.033,0.026-0.067,0.055-0.104,0.085
	c-0.027-0.037-0.053-0.073-0.081-0.112c0.037-0.024,0.075-0.049,0.115-0.073C46.256,19.6,46.28,19.633,46.304,19.668 M46.254,19.045
	c0.027-0.017,0.053-0.033,0.081-0.052c0.019,0.027,0.035,0.051,0.053,0.077c-0.026,0.02-0.05,0.037-0.077,0.059
	C46.292,19.102,46.273,19.074,46.254,19.045 M44.279,20.208c-0.007-0.157-0.069-0.26-0.197-0.312
	c0.053-0.017,0.11-0.026,0.158-0.054c0.048-0.027,0.085-0.073,0.125-0.106c0.019,0.039,0.037,0.091,0.066,0.134
	c0.03,0.039,0.073,0.07,0.112,0.107C44.415,19.998,44.331,20.072,44.279,20.208 M49.137,15.514v-0.011
	c0.002-0.011,0.004-0.023,0.003-0.034c-0.005-0.16-0.014-0.322-0.019-0.48c-0.008-0.314-0.044-0.626-0.086-0.936
	c-0.081-0.588-0.213-1.164-0.395-1.729c-0.278-0.863-0.662-1.676-1.151-2.441c-0.477-0.748-1.043-1.419-1.687-2.025
	c-0.372-0.351-0.771-0.668-1.191-0.959c-0.595-0.411-1.225-0.759-1.892-1.04c-0.637-0.268-1.293-0.471-1.97-0.61
	c-0.552-0.113-1.111-0.184-1.676-0.2c-0.378-0.01-0.756,0.006-1.135,0.02c-0.42,0.015-0.838,0.076-1.251,0.155
	c-1.087,0.209-2.117,0.58-3.087,1.115c-1.072,0.593-2.013,1.351-2.822,2.27c-0.662,0.752-1.205,1.583-1.629,2.492
	c-0.338,0.727-0.59,1.483-0.756,2.266c-0.113,0.542-0.188,1.09-0.207,1.641c-0.013,0.415-0.024,0.827,0.015,1.242
	c0.025,0.271,0.049,0.546,0.087,0.816c0.081,0.595,0.225,1.177,0.416,1.744c0.192,0.577,0.433,1.134,0.723,1.668
	c0.488,0.898,1.097,1.71,1.817,2.438c0.181,0.181,0.373,0.354,0.566,0.521c0.677,0.594,1.422,1.086,2.229,1.486
	c0.5,0.251,1.021,0.457,1.556,0.621c0.561,0.171,1.13,0.301,1.713,0.369c0.301,0.034,0.603,0.057,0.905,0.074
	c0.196,0.011,0.394,0.02,0.588-0.001c0.537-0.057,0.966-0.312,1.274-0.758c0.272-0.393,0.365-0.831,0.294-1.302
	c-0.07-0.471-0.297-0.852-0.669-1.143c-0.333-0.261-0.717-0.369-1.136-0.378c-0.225-0.005-0.449-0.017-0.673-0.039
	c-0.531-0.055-1.047-0.178-1.549-0.358c-0.54-0.192-1.048-0.448-1.523-0.771c-0.464-0.312-0.883-0.677-1.26-1.09
	c-0.25-0.275-0.478-0.566-0.681-0.88c-0.341-0.524-0.605-1.089-0.796-1.687c-0.185-0.583-0.284-1.178-0.312-1.786
	c-0.01-0.22,0.007-0.443,0.013-0.662c0.01-0.388,0.072-0.768,0.157-1.143c0.179-0.78,0.485-1.507,0.917-2.179
	c0.352-0.546,0.771-1.034,1.26-1.463C34.516,10,34.948,9.699,35.416,9.45c0.631-0.337,1.298-0.571,2.003-0.7
	c0.564-0.103,1.134-0.137,1.704-0.099c0.555,0.037,1.097,0.142,1.625,0.312c1.013,0.326,1.901,0.86,2.671,1.592
	c0.322,0.305,0.609,0.642,0.864,1.004c0.482,0.687,0.833,1.435,1.043,2.249c0.113,0.439,0.184,0.884,0.206,1.337
	c0.004,0.091,0.007,0.179,0.01,0.271H45.54l-0.009,0.419c-0.009,0.136-0.016,0.272-0.03,0.406c-0.02,0.185-0.039,0.371-0.077,0.554
	c-0.053,0.251-0.118,0.498-0.188,0.744c-0.088,0.31-0.207,0.61-0.349,0.899c-0.118,0.24-0.257,0.473-0.39,0.708
	c-0.017,0.031-0.024,0.061-0.002,0.088c0.035,0.047,0.073,0.091,0.11,0.138c-0.086,0.024-0.154,0.078-0.202,0.162
	c-0.021-0.05-0.039-0.096-0.059-0.14c-0.083,0.11-0.159,0.218-0.243,0.32c-0.127,0.156-0.26,0.309-0.389,0.466
	c-0.015,0.02-0.022,0.052-0.017,0.074c0.031,0.123,0.136,0.204,0.265,0.217c0.116,0.009,0.235-0.062,0.287-0.171
	c0.01-0.024,0.018-0.05,0.032-0.081c-0.019,0.167,0.047,0.282,0.193,0.354c-0.194,0.038-0.291,0.138-0.294,0.292
	c-0.003,0.138,0.086,0.255,0.218,0.292c0.132,0.034,0.273-0.024,0.337-0.146c0.04-0.077,0.043-0.157,0.015-0.24
	c-0.028-0.081-0.088-0.137-0.166-0.179c0.125-0.01,0.213-0.07,0.278-0.184c0.021,0.125,0.084,0.207,0.188,0.263
	c-0.172,0.045-0.266,0.139-0.276,0.272c-0.012,0.138,0.051,0.261,0.171,0.311c0.176,0.071,0.311,0.012,0.413-0.151
	c0.014,0.133,0.08,0.22,0.192,0.277c-0.175,0.044-0.269,0.135-0.283,0.268c-0.016,0.15,0.051,0.252,0.218,0.336
	c-0.193,0.019-0.309,0.119-0.314,0.276c-0.007,0.15,0.093,0.277,0.238,0.304c0.14,0.025,0.281-0.059,0.327-0.193
	c0.052-0.153-0.02-0.29-0.205-0.382c0.144,0.007,0.241-0.051,0.305-0.16c0.025,0.048,0.042,0.104,0.074,0.146
	c0.033,0.042,0.082,0.074,0.122,0.107c-0.153,0.031-0.256,0.128-0.271,0.267c-0.015,0.132,0.054,0.256,0.174,0.311
	c0.074,0.033,0.15,0.036,0.229,0.009c0.077-0.027,0.129-0.081,0.173-0.155c0.01,0.036,0.018,0.063,0.029,0.104
	c0.085-0.1,0.166-0.188,0.242-0.282c0.144-0.173,0.285-0.349,0.427-0.522c0.022-0.026,0.027-0.052,0.006-0.081
	c-0.025-0.032-0.05-0.066-0.074-0.098c0.03-0.016,0.06-0.029,0.087-0.047c0.027-0.018,0.051-0.042,0.078-0.064
	c0.018,0.029,0.033,0.056,0.053,0.09c1.291-1.835,1.945-3.861,1.957-6.098H49.137z"/>
<path fill="#81B910" d="M45.256,21.578c-0.001-0.16-0.128-0.287-0.29-0.287c-0.164-0.001-0.292,0.127-0.292,0.289
	c-0.001,0.165,0.129,0.294,0.292,0.293C45.13,21.872,45.257,21.743,45.256,21.578"/>
<path fill="#81B910" d="M43.873,20.483c-0.157-0.001-0.282,0.124-0.283,0.281c0,0.158,0.124,0.281,0.281,0.282
	c0.158,0,0.282-0.123,0.282-0.28C44.153,20.607,44.03,20.484,43.873,20.483"/>
<path fill="#81B910" d="M44.371,21.192c-0.158-0.001-0.286,0.123-0.286,0.278c-0.001,0.155,0.12,0.28,0.273,0.282
	c0.159,0.002,0.285-0.119,0.287-0.276C44.646,21.32,44.525,21.195,44.371,21.192"/>
<path fill="#81B910" d="M44.58,22.181c0,0.153,0.124,0.278,0.279,0.278c0.154,0,0.279-0.125,0.279-0.278
	c0-0.154-0.125-0.279-0.279-0.279C44.704,21.902,44.58,22.027,44.58,22.181"/>
<path fill="#81B910" d="M45.354,22.6c-0.15-0.001-0.277,0.122-0.28,0.273c-0.003,0.15,0.119,0.277,0.27,0.281
	c0.151,0.005,0.279-0.117,0.285-0.27C45.634,22.734,45.508,22.602,45.354,22.6"/>
<path fill="#81B910" d="M43.506,21.361c-0.002,0.149,0.117,0.272,0.265,0.274c0.15,0.001,0.272-0.118,0.273-0.267
	c0-0.151-0.119-0.271-0.268-0.271C43.629,21.097,43.509,21.214,43.506,21.361"/>
<path fill="#81B910" d="M44.524,22.076c0-0.146-0.121-0.269-0.266-0.269c-0.145-0.002-0.267,0.121-0.267,0.267
	c-0.001,0.145,0.121,0.266,0.265,0.266C44.402,22.34,44.523,22.22,44.524,22.076"/>
<path fill="#81B910" d="M44.751,22.506c-0.145,0-0.267,0.122-0.265,0.267c0.002,0.145,0.121,0.263,0.265,0.264
	c0.146,0,0.267-0.122,0.264-0.27C45.013,22.624,44.896,22.506,44.751,22.506"/>
<path fill="#81B910" d="M42.92,21.25c-0.005,0.137,0.104,0.253,0.244,0.262c0.136,0.008,0.258-0.104,0.264-0.245
	c0.007-0.136-0.102-0.254-0.243-0.261C43.047,20.997,42.927,21.11,42.92,21.25"/>
<path fill="#81B910" d="M43.917,21.964c-0.001-0.14-0.111-0.247-0.25-0.247c-0.14,0-0.251,0.109-0.25,0.251
	c0.001,0.139,0.111,0.248,0.25,0.248C43.808,22.216,43.919,22.105,43.917,21.964"/>
<path fill="#81B910" d="M44.161,22.913c0.138,0,0.248-0.11,0.248-0.249s-0.108-0.248-0.247-0.248c-0.139,0-0.249,0.109-0.249,0.248
	S44.022,22.913,44.161,22.913"/>
<path fill="#81B910" d="M44.656,23.125c-0.135-0.001-0.247,0.11-0.249,0.245c-0.001,0.134,0.109,0.246,0.243,0.248
	c0.137,0.003,0.25-0.109,0.25-0.245C44.9,23.236,44.79,23.125,44.656,23.125"/>
<path fill="#81B910" d="M45.193,23.222c-0.121,0.021-0.212,0.132-0.21,0.266c0.003,0.096,0.048,0.175,0.14,0.222
	c0.018,0.01,0.054,0.007,0.068-0.005c0.097-0.076,0.186-0.157,0.281-0.231c0.031-0.024,0.03-0.047,0.02-0.076
	C45.451,23.271,45.328,23.198,45.193,23.222"/>
<path fill="#81B910" d="M42.832,21.857c-0.001,0.128,0.104,0.236,0.233,0.238c0.129,0.002,0.235-0.105,0.237-0.233
	s-0.104-0.236-0.232-0.238C42.941,21.623,42.834,21.728,42.832,21.857"/>
<path fill="#81B910" d="M43.328,22.564c-0.002,0.127,0.103,0.233,0.229,0.235c0.126,0.002,0.233-0.104,0.235-0.229
	c0.002-0.127-0.102-0.234-0.229-0.235C43.437,22.333,43.33,22.438,43.328,22.564"/>
<path fill="#81B910" d="M44.053,23.038c-0.128,0-0.228,0.099-0.227,0.228c0,0.128,0.101,0.228,0.229,0.227
	c0.127-0.001,0.227-0.1,0.227-0.229C44.281,23.135,44.18,23.037,44.053,23.038"/>
<path fill="#81B910" d="M45.895,22.701c-0.118,0.023-0.197,0.099-0.225,0.217c-0.027,0.115,0.007,0.211,0.096,0.293
	c0.133-0.14,0.264-0.279,0.4-0.423C46.103,22.713,46.007,22.678,45.895,22.701"/>
<path fill="#81B910" d="M44.562,23.747c-0.132-0.008-0.24,0.093-0.24,0.224c0,0.106,0.071,0.199,0.174,0.221
	c0.013,0.004,0.033,0.003,0.044-0.004c0.068-0.046,0.136-0.093,0.202-0.143c0.015-0.01,0.028-0.032,0.03-0.05
	C44.786,23.868,44.688,23.752,44.562,23.747"/>
<path fill="#81B910" d="M42.252,21.75c0,0.12,0.094,0.216,0.212,0.216c0.12,0.001,0.216-0.092,0.217-0.212s-0.094-0.218-0.215-0.217
	C42.347,21.538,42.252,21.632,42.252,21.75"/>
<path fill="#81B910" d="M42.748,22.46c0.002,0.117,0.1,0.213,0.214,0.211c0.115-0.002,0.211-0.099,0.209-0.214
	c-0.001-0.116-0.1-0.211-0.214-0.209C42.842,22.25,42.747,22.348,42.748,22.46"/>
<path fill="#81B910" d="M43.057,20.808c0.054,0.091,0.157,0.141,0.259,0.127c0.108-0.016,0.197-0.092,0.224-0.197
	c0.029-0.109-0.007-0.202-0.093-0.282C43.314,20.575,43.185,20.692,43.057,20.808"/>
<path fill="#81B910" d="M43.457,22.948c-0.118-0.002-0.212,0.094-0.212,0.21c0.001,0.116,0.094,0.208,0.208,0.208
	c0.116,0,0.208-0.092,0.209-0.207S43.572,22.95,43.457,22.948"/>
<path fill="#81B910" d="M43.946,23.661c-0.113,0-0.203,0.092-0.203,0.204c0,0.114,0.091,0.203,0.204,0.203s0.204-0.09,0.204-0.204
	C44.15,23.751,44.059,23.66,43.946,23.661"/>
<path fill="#81B910" d="M42.18,22.356c0.002,0.102,0.088,0.187,0.19,0.187c0.104,0,0.191-0.09,0.189-0.191
	c-0.001-0.103-0.087-0.188-0.189-0.188C42.266,22.163,42.178,22.252,42.18,22.356"/>
<path fill="#81B910" d="M42.852,22.867c-0.104,0.001-0.184,0.081-0.183,0.185c0,0.103,0.082,0.183,0.185,0.183
	c0.102-0.001,0.182-0.083,0.181-0.187C43.035,22.945,42.955,22.866,42.852,22.867"/>
<path fill="#81B910" d="M43.348,23.577c-0.098-0.001-0.182,0.08-0.183,0.179c-0.001,0.1,0.081,0.181,0.179,0.183
	c0.097,0.002,0.182-0.08,0.183-0.179C43.528,23.662,43.447,23.578,43.348,23.577"/>
<path fill="#81B910" d="M43.841,24.288c-0.083,0-0.157,0.057-0.175,0.138c-0.019,0.085,0.022,0.169,0.102,0.2
	c0.019,0.009,0.046,0.01,0.063,0c0.05-0.025,0.094-0.059,0.145-0.083c0.039-0.019,0.042-0.046,0.042-0.077
	C44.018,24.367,43.938,24.289,43.841,24.288"/>
<path fill="#81B910" d="M41.771,22.085c-0.088-0.001-0.161,0.07-0.162,0.158c0,0.088,0.071,0.162,0.159,0.163
	c0.088,0.001,0.162-0.072,0.162-0.159C41.93,22.158,41.859,22.085,41.771,22.085"/>
<path fill="#81B910" d="M42.393,21.295c0.087,0.103,0.224,0.12,0.324,0.039c0.097-0.075,0.12-0.208,0.052-0.302
	C42.644,21.12,42.521,21.207,42.393,21.295"/>
<path fill="#81B910" d="M42.261,22.797c-0.084,0.001-0.152,0.069-0.154,0.153c-0.001,0.087,0.069,0.157,0.155,0.158
	c0.086,0.001,0.157-0.069,0.157-0.156C42.418,22.867,42.347,22.796,42.261,22.797"/>
<path fill="#81B910" d="M42.045,21.561c-0.011-0.022-0.02-0.046-0.055-0.026c-0.098,0.054-0.195,0.104-0.296,0.155
	c0.041,0.119,0.147,0.174,0.254,0.129C42.051,21.776,42.095,21.657,42.045,21.561"/>
<path fill="#81B910" d="M42.757,23.5c-0.083,0-0.15,0.062-0.151,0.147c-0.002,0.083,0.065,0.153,0.149,0.154
	c0.084,0,0.15-0.066,0.151-0.148C42.909,23.567,42.842,23.5,42.757,23.5"/>
<path fill="#81B910" d="M43.238,24.212c-0.078,0.001-0.142,0.064-0.144,0.143c-0.002,0.081,0.062,0.147,0.143,0.149
	c0.08,0,0.147-0.064,0.147-0.146C43.384,24.279,43.318,24.212,43.238,24.212"/>
<path fill="#81B910" d="M41.174,22.016c-0.069-0.003-0.125,0.05-0.126,0.116c-0.003,0.071,0.049,0.125,0.117,0.128
	c0.069,0.002,0.125-0.05,0.126-0.118C41.293,22.075,41.242,22.018,41.174,22.016"/>
<path fill="#81B910" d="M41.669,22.729c-0.064-0.005-0.122,0.048-0.125,0.112c-0.002,0.063,0.047,0.117,0.11,0.123
	c0.065,0.003,0.122-0.048,0.124-0.114C41.782,22.788,41.733,22.734,41.669,22.729"/>
<path fill="#81B910" d="M42.161,23.432c-0.064-0.003-0.113,0.045-0.115,0.109c-0.001,0.061,0.044,0.11,0.106,0.111
	c0.063,0.002,0.113-0.045,0.114-0.107C42.267,23.483,42.222,23.435,42.161,23.432"/>
<path fill="#81B910" d="M42.648,24.145c-0.057,0.001-0.105,0.051-0.104,0.108c0.001,0.056,0.048,0.102,0.103,0.103
	c0.058,0.002,0.107-0.047,0.108-0.104C42.754,24.194,42.704,24.145,42.648,24.145"/>
<path fill="#81B910" d="M43.087,24.859c-0.057,0.036-0.064,0.102-0.017,0.163c0.026-0.014,0.049-0.025,0.073-0.037
	c0.024-0.011,0.047-0.021,0.072-0.03c0.032-0.01,0.033-0.03,0.019-0.057C43.206,24.846,43.138,24.827,43.087,24.859"/>
<path fill="#81B910" d="M41.062,22.673c-0.04,0-0.063,0.021-0.065,0.062c-0.002,0.041,0.02,0.066,0.062,0.068
	c0.042,0.002,0.065-0.022,0.07-0.063C41.125,22.699,41.104,22.673,41.062,22.673"/>
<path fill="#81B910" d="M41.498,23.43c-0.009,0.037,0.019,0.067,0.054,0.064c0.025-0.004,0.048-0.028,0.072-0.044
	c0-0.008,0.001-0.018,0.001-0.025c-0.022-0.018-0.045-0.047-0.068-0.047C41.535,23.379,41.504,23.409,41.498,23.43"/>
<path fill="#81B910" d="M41.997,24.139c0.017,0.021,0.032,0.048,0.053,0.053c0.016,0.004,0.039-0.022,0.073-0.046
	c-0.032-0.025-0.053-0.053-0.07-0.052C42.032,24.095,42.015,24.123,41.997,24.139"/>
<path fill="#81B910" d="M42.499,24.847c0.002,0.019,0.024,0.045,0.042,0.048c0.015,0.002,0.035-0.021,0.07-0.044
	c-0.034-0.022-0.052-0.043-0.07-0.043C42.526,24.809,42.497,24.835,42.499,24.847"/>
</svg>
