<svg xmlns="http://www.w3.org/2000/svg" fill="none" viewBox="0 0 125 103" height="103" width="125">
<path fill="#1F1F1F" d="M8.12999 43.2599H9.50999C11.48 43.2599 12.39 42.45 12.39 39.4799V30.37C12.39 27.4 11.47 26.59 9.50999 26.59H8.12999V43.2599ZM8.12999 20.86H9.69999C11.47 20.86 12.19 20.05 12.19 17.28V9.98995C12.19 7.21995 11.47 6.40995 9.69999 6.40995H8.12999V20.85V20.86ZM1.17999 0.949951H11.01C16.58 0.949951 19.14 4.45995 19.14 9.58995V17.2199C19.07 21.41 16.72 22.6899 12.72 23.6299V23.76C17.11 24.6399 19.34 25.85 19.34 31.25V38.88C19.34 44.6199 16.78 49.0099 10.95 49.0099H1.17999V0.949951Z"></path>
<path fill="#1F1F1F" d="M29.29 41.24C29.29 43.67 30.01 44.21 31.45 44.21C32.89 44.21 33.55 43.67 33.55 41.24V8.71C33.55 6.28 32.83 5.74 31.45 5.74C30.07 5.74 29.29 6.28 29.29 8.71V41.24ZM22.34 8.1C22.34 1.82 27.13 0 31.39 0C35.65 0 40.5 1.82 40.5 8.1V41.85C40.5 48.13 35.72 49.95 31.39 49.95C27.06 49.95 22.35 48.13 22.35 41.85V8.1H22.34Z"></path>
<path fill="#1F1F1F" d="M41.74 49L47.57 24.7L42.26 0.949951H49.47C50.78 7.22995 52.16 13.5 52.75 19.92H52.95C53.28 14.92 54.46 10.13 55.7 5.40995L56.82 0.959951H63.31L57.67 22.9L63.44 49.02H56.3L53.81 37.41C53.02 33.63 52.37 27.96 52.3 28.03C52.1 35.1199 49.74 42.07 48.24 49.02H41.75L41.74 49Z"></path>
<path fill="#1F1F1F" d="M64.87 49V0.949951H80.33V7.21995H71.82V19.57H80.01V25.85H71.82V42.72H80.47V49H64.87Z"></path>
<path fill="#1F1F1F" d="M89.58 43.2599H91.22C92.99 43.2599 93.84 42.79 93.84 39.68V10.26C93.84 7.15995 92.99 6.67995 91.22 6.67995H89.58V43.2599ZM82.64 0.949951H91.03C97.91 0.949951 100.79 3.37995 100.79 11.82V40.2999C100.79 44.8899 97.91 49.0099 92.54 49.0099H82.65V0.949951H82.64Z"></path>
<path fill="#1F1F1F" d="M4.26 102.74L0 54.6799H7.01L8.45 72.1599C8.84 77.7599 9.17 83.4299 9.3 89.1699H9.63C9.63 82.8899 10.09 76.6799 10.42 70.4799L11.99 54.6799H19.53L20.97 73.6499C21.43 79.5199 21.49 83.9799 21.69 89.1699H22.02C22.22 84.4499 22.28 79.2499 22.74 75.0599L24.51 54.6799H30.15L25.5 102.74H17.96L16.78 85.4599C16.58 79.2499 15.93 73.1099 15.93 66.8999H15.6C15.01 72.1599 14.88 77.4999 14.29 82.7599L12.32 102.74H4.26Z"></path>
<path fill="#1F1F1F" d="M38.34 63.4599H38.8L40.24 83.4399H36.64L38.34 63.4599ZM33.49 54.6799L28.18 102.74H34.47L35.98 89.7099H40.89L42.2 102.74H49.21L43.9 54.6799H33.48H33.49Z"></path>
<path fill="#1F1F1F" d="M46.15 54.6799V60.9599H52.24V102.74H59.18V60.9599H65.21V54.6799H46.15Z"></path>
<path fill="#1F1F1F" d="M67.37 54.6799V102.74H82.97V96.4699H74.32V79.5899H82.51V73.3099H74.32V60.9599H82.84V54.6799H67.37Z"></path>
<path fill="#1F1F1F" d="M92.02 74.5999H93.33C95.75 74.5999 96.28 73.2499 96.28 71.4899V62.7799C96.28 60.9599 95.23 60.4199 93.66 60.4199H92.02V74.5899V74.5999ZM85.07 102.74V54.6799H94.24C99.81 54.6799 103.22 56.6999 103.22 62.9199V69.7399C103.22 73.3199 102.24 76.2899 96.34 76.9599V77.0999C99.42 77.4999 102.7 78.5799 102.96 82.9699C103.35 89.3799 102.96 96.1299 104.07 102.75H97.12C95.94 97.2199 96.27 89.9899 96.27 84.3899C96.27 81.4899 95.22 80.3399 92.01 80.4699V102.74H85.06H85.07Z"></path>
<path fill="#1F1F1F" d="M124.27 90.9399V90.8799L116.4 55.3599H116.38C116.32 54.9499 115.99 54.6299 115.57 54.6299C115.15 54.6299 114.82 54.9499 114.76 55.3599H114.74L105.99 90.8799C105.04 96.3999 108.86 102.75 115.13 102.75C121.4 102.75 125.72 96.9899 124.27 90.9399Z"></path>
<path fill="#1F1F1F" d="M121.27 57.2799C121.74 57.2799 122.42 57.3599 122.42 56.6699C122.42 56.1399 122 56.0799 121.6 56.0799H120.66V57.2799H121.27ZM122.82 59.1699H122.34L121.4 57.6099H120.66V59.1699H120.26V55.7799H121.7C122.57 55.7799 122.87 56.1199 122.87 56.6799C122.87 57.3399 122.42 57.5899 121.84 57.6099L122.84 59.1699H122.82ZM123.82 57.4699C123.82 55.9999 122.78 54.8399 121.35 54.8399C119.92 54.8399 118.86 55.9899 118.86 57.4699C118.86 58.9499 119.91 60.1099 121.35 60.1099C122.79 60.1099 123.82 58.9599 123.82 57.4699ZM118.39 57.4699C118.39 55.7999 119.71 54.4399 121.35 54.4399C122.99 54.4399 124.29 55.7999 124.29 57.4699C124.29 59.1399 122.98 60.5099 121.35 60.5099C119.72 60.5099 118.39 59.1499 118.39 57.4699Z"></path>
</svg>
