<svg width="160" height="44" viewBox="0 0 160 44" fill="none" xmlns="http://www.w3.org/2000/svg">
<path d="M109.815 14.7421C108.829 14.0848 107.327 13.3337 105.59 13.3337C102.632 13.3337 100.566 15.8689 100.566 18.8267C100.566 21.8315 102.585 24.3668 105.59 24.3668C107.139 24.3668 108.547 23.7565 109.533 23.0522L114.134 26.949C111.975 29.1557 108.97 30.5172 105.59 30.5172C99.0636 30.5172 94.1339 25.4466 94.1339 18.8737C94.1339 12.3477 99.0166 7.27716 105.59 7.27716C109.158 7.27716 111.787 8.5448 113.994 10.9862L109.815 14.7421Z" fill="#23292D"/>
<path d="M60.1424 0.0938721H46.8087V29.9068H54.039V20.1413H59.3912C65.5885 20.1413 69.9549 15.3994 69.9549 10.0472C69.9079 4.64798 65.5416 0.0938721 60.1424 0.0938721ZM58.4522 14.4135H53.992V6.29121H58.2175C60.7058 6.29121 62.6777 7.7936 62.6777 10.2819C62.6777 12.7233 60.9875 14.4135 58.4522 14.4135Z" fill="#23292D"/>
<path d="M86.2933 7.32408V9.24902C84.697 7.60578 83.0538 6.94849 80.5185 6.94849C75.2132 6.94849 69.9079 11.9721 69.9079 18.4511C69.9079 24.9771 74.9315 30.1885 80.5185 30.1885C83.0538 30.1885 84.744 29.1556 86.2933 27.6532V29.766H92.8193V7.32408H86.2933ZM81.3166 24.179C78.3588 24.179 76.293 21.4559 76.293 18.4511C76.293 15.4933 78.3588 12.7233 81.3166 12.7233C84.3214 12.7233 86.3402 15.4464 86.3402 18.4511C86.3402 21.4559 84.3214 24.179 81.3166 24.179Z" fill="#23292D"/>
<path d="M156.905 20.7517C154.276 17.5591 150.379 15.7281 146.248 15.7281H142.257L149.159 7.32413H141.835L132.633 18.4981L141.975 29.8599H149.3L142.351 21.409H146.201C148.642 21.409 150.943 22.4888 152.445 24.3668C153.807 26.057 154.464 28.1697 154.229 30.2825C154.042 32.4421 153.009 34.3671 151.318 35.7286C149.628 37.0902 147.562 37.7474 145.403 37.5127C143.243 37.3249 141.318 36.2451 139.957 34.6018L139.534 34.0854L139.205 33.7098L126.67 18.4512C126.67 18.4512 126.623 18.4042 126.623 18.3573L135.449 7.32413H128.266L122.022 15.0239V0H115.214V29.813H121.975L121.928 21.6437L135.543 38.2169C137.891 41.0809 141.177 42.818 144.839 43.1936C145.309 43.2405 145.778 43.2875 146.201 43.2875C149.347 43.2875 152.445 42.2077 154.934 40.1419C157.797 37.7944 159.535 34.5079 159.91 30.8459C160.333 27.1838 159.253 23.6156 156.905 20.7517Z" fill="#23292D"/>
<path d="M17.653 18.0756C21.0334 16.1037 22.8644 13.1928 22.8644 9.34295C22.8644 3.94375 17.9347 0.046936 12.5355 0.046936H0V29.8599H7.23024V19.6719H10.9392L16.8079 29.9069H24.9302L17.653 18.0756ZM10.8923 13.8032H7.18328V6.29123H10.8923C13.3806 6.29123 15.6342 7.41802 15.6342 9.90634C15.6342 12.3947 13.3806 13.8032 10.8923 13.8032Z" fill="#23292D"/>
<path d="M44.8838 19.0615C44.8838 12.6294 40.4705 7.23022 33.9915 7.23022C27.7942 7.23022 22.7236 12.066 22.7236 18.8268C22.7236 25.6345 27.2777 30.4703 34.0854 30.4703C39.062 30.4703 42.0199 28.2636 44.4143 25.6814L39.4846 22.9114C38.4517 23.8504 36.7615 24.6485 34.5079 24.6485C32.1135 24.6485 29.9538 23.8504 29.3435 20.7517H44.7899C44.7899 20.1883 44.8838 19.578 44.8838 19.0615ZM29.3904 16.714C30.0477 14.2727 31.7379 12.8642 33.8506 12.8642C35.9164 12.8642 37.7005 14.7422 38.0292 16.714H29.3904Z" fill="#23292D"/>
</svg>
